<?xml version="1.0" encoding="UTF-8" standalone="no"?>
<!--  -->

<svg
   xmlns:dc="http://purl.org/dc/elements/1.1/"
   xmlns:cc="http://creativecommons.org/ns#"
   xmlns:rdf="http://www.w3.org/1999/02/22-rdf-syntax-ns#"
   xmlns:svg="http://www.w3.org/2000/svg"
   xmlns="http://www.w3.org/2000/svg"
   xmlns:sodipodi="http://sodipodi.sourceforge.net/DTD/sodipodi-0.dtd"
   xmlns:inkscape="http://www.inkscape.org/namespaces/inkscape"
   version="1.0"
   width="107.54mm"
   height="147.10001mm"
   id="svg2985"
   inkscape:version="0.48.4 r9939"
   sodipodi:docname="Scheme.svg">
  <metadata
     id="metadata3011">
    <rdf:RDF>
      <cc:Work
         rdf:about="">
        <dc:format>image/svg+xml</dc:format>
        <dc:type
           rdf:resource="http://purl.org/dc/dcmitype/StillImage" />
        <dc:title />
      </cc:Work>
    </rdf:RDF>
  </metadata>
  <sodipodi:namedview
     pagecolor="#ffffff"
     bordercolor="#666666"
     borderopacity="1"
     objecttolerance="10"
     gridtolerance="10"
     guidetolerance="10"
     inkscape:pageopacity="0"
     inkscape:pageshadow="2"
     inkscape:window-width="1920"
     inkscape:window-height="1061"
     id="namedview3009"
     showgrid="false"
     inkscape:zoom="2.3686873"
     inkscape:cx="243.68732"
     inkscape:cy="138.04892"
     inkscape:window-x="1276"
     inkscape:window-y="-4"
     inkscape:window-maximized="1"
     inkscape:current-layer="layer5" />
  <defs
     id="defs2987" />
  <path
     inkscape:connector-curvature="0"
     id="path2991"
     d="m 101.44488,464.24414 -0.38976,-3.15355 -1.24016,-2.90551 -1.913386,-2.51575 -2.515748,-1.91338 -2.940945,-1.20473 -3.153543,-0.42519 -3.11811,0.42519 -2.940945,1.20473 -2.515748,1.91338 -1.948819,2.51575 -1.204724,2.90551 -0.425197,3.15355 0.425197,3.11811 1.204724,2.94094 1.948819,2.51575 2.515748,1.91339 2.940945,1.20472 3.11811,0.38977 3.153543,-0.38977 2.940945,-1.20472 2.515748,-1.91339 1.913386,-2.51575 1.24016,-2.94094 0.38976,-3.11811 m -12.153542,-12.11811 10.948822,17.53937 -21.862208,0 10.913386,-17.53937 m 77.173232,12.11811 -0.38977,-3.15355 -1.24016,-2.90551 -1.91338,-2.51575 -2.51575,-1.91338 -2.94094,-1.20473 -3.15355,-0.42519 -3.11811,0.42519 -2.94094,1.20473 -2.51575,1.91338 -1.94882,2.51575 -1.20472,2.90551 -0.4252,3.15355 0.4252,3.11811 1.20472,2.94094 1.94882,2.51575 2.51575,1.91339 2.94094,1.20472 3.11811,0.38977 3.15355,-0.38977 2.94094,-1.20472 2.51575,-1.91339 1.91338,-2.51575 1.24016,-2.94094 0.38977,-3.11811 m -12.15355,-12.11811 10.94882,17.53937 -21.8622,0 10.91338,-17.53937 m -71.397635,38.12598 0,-10.27559 4.429134,0 1.452756,0.49606 0.496063,0.49607 0.496063,0.95669 0,1.48819 -0.496063,0.99213 -0.496063,0.46063 -1.452756,0.49606 -4.464567,0 m 10.38189,-3.43701 0.956693,-0.49606 1.488189,-1.45276 0,10.31103 m 49.996066,-0.0354 0,-10.27559 4.42913,0 1.48819,0.49606 0.49606,0.49607 0.49607,0.95669 0,1.48819 -0.49607,0.99213 -0.49606,0.46063 -1.48819,0.49606 -4.46457,0 m 10.87796,-2.94095 0,-0.49606 0.49606,-0.95669 0.49606,-0.49607 0.95669,-0.49606 1.98426,0 0.95669,0.49606 0.49606,0.49607 0.49607,0.95669 0,0.99213 -0.49607,0.99212 -0.95669,1.45276 -4.9252,4.88976 6.90945,0 m 148.74803,4.25197 9.1063,-9.67323 9.1063,9.67323 -9.1063,9.67323 -9.1063,-9.67323 18.24803,0 m -39.08267,-59.88189 0.77952,13.25197 -13.32283,-0.0354 -0.81496,-13.25197 13.35827,0.0354 -12.54331,13.21653"
     style="fill:none;stroke:none" />
  <g
     inkscape:groupmode="layer"
     id="layer1"
     inkscape:label="Background"
     style="display:inline"
     sodipodi:insensitive="true">
    <path
       inkscape:connector-curvature="0"
       id="path3005"
       d="m 348.16535,455.17327 0,-253.06302 m -83.87008,-47.16142 111.18898,0 0,-154.94883 -111.18898,0 0,154.98427 m 52.26378,-146.5157653 0,26.6456713 5.4567,-6.059055 0,25.440947 m -5.4567,-6.094489 5.4567,6.059056 5.49212,-6.059056 m -10.94882,0 10.98425,0"
       style="fill:none;stroke:#ff0000;stroke-width:1;stroke-linecap:round;stroke-linejoin:round;stroke-miterlimit:4;stroke-opacity:1;stroke-dasharray:none" />
    <path
       inkscape:connector-curvature="0"
       id="path3001"
       d="m 30.366142,202.14569 0,313.54727 345.118108,0 0,-313.54727 -123.94488,0 0,-47.19686 5.45669,0 0,41.74016 123.98032,0 0,324.42523 -356.066931,0 0,-324.42523 123.944881,0 0,-41.74016 5.45669,0 0,47.19686 -123.980312,0"
       style="fill:none;stroke:#000000;stroke-width:1;stroke-linecap:round;stroke-linejoin:round;stroke-miterlimit:4;stroke-opacity:1;stroke-dasharray:none" />
    <path
       inkscape:connector-curvature="0"
       id="path3003"
       d="m 0.6023622,297.77955 8.5039369,-3.61417 0,7.26378 -8.5039369,-3.64961 M 0,423.0709 0,419.45673 9.1062991,423.0709 0,426.72051 0,423.03547"
       style="fill:none;stroke:#0000ff;stroke-width:1;stroke-linecap:round;stroke-linejoin:round;stroke-miterlimit:4;stroke-opacity:1;stroke-dasharray:none" />
    <path
       inkscape:connector-curvature="0"
       id="path3007"
       d="m 243.92126,333.49609 0,10.27559 5.91732,0 m 9.3189,-8.7874 -0.99213,-0.99212 -1.45275,-0.49607 -1.98426,0 -1.45275,0.49607 -0.99213,0.99212 0,0.9567 0.49607,0.99212 0.49606,0.49606 0.95669,0.49607 2.97638,0.95669 0.95669,0.49606 0.49607,0.49607 0.49606,0.95669 0,1.48819 -0.99213,0.99212 -1.45275,0.46063 -1.98426,0 -1.45275,-0.46063 -0.99213,-0.99212 m 9.8504,1.45275 3.93307,-10.27559 L 270,343.77168 m -6.41339,-3.40157 4.96063,0 m 4.88977,-4.42913 0,-0.49607 0.49606,-0.95669 0.49606,-0.49606 0.95669,-0.49607 1.98426,0 0.99212,0.49607 0.46063,0.49606 0.49607,0.95669 0,0.99213 -0.49607,0.99212 -0.95669,1.45276 -4.9252,4.88976 6.90945,0 m -5.77559,126.53151 0,10.27559 5.95276,0 m 9.31889,-8.82283 -0.99212,-0.99213 -1.48819,-0.46063 -1.94882,0 -1.48819,0.46063 -0.99212,0.99213 0,0.99212 0.49606,0.99213 0.49606,0.46063 0.99213,0.49606 2.94094,0.99213 0.99213,0.46063 0.49606,0.49606 0.49606,0.99213 0,1.48819 -0.99212,0.95669 -1.48819,0.49606 -1.94882,0 -1.48819,-0.49606 -0.99212,-0.95669 m 9.85039,1.45275 3.93307,-10.27559 3.93307,10.27559 m -6.41338,-3.437 4.96063,0 m 4.3937,-4.88977 0.99212,-0.49606 1.48819,-1.45276 0,10.31103 m 39.50787,13.2874 0,10.27559 5.95276,0 m 2.40945,0 0,-10.31102 m 3.93307,10.31102 3.93307,-10.27559 3.93307,10.27559 m -6.37795,-3.43701 4.96063,0 m 4.3937,-4.88976 0.95669,-0.49606 1.48819,-1.45276 0,10.31102 m -58.8189,-436.429169 0,10.311024 m -3.437,-10.311024 6.90945,0 m 6.83858,0 0,7.830709 -0.49607,1.488189 -0.46063,0.46063 -0.99212,0.496063 -0.99213,0 -0.99212,-0.496063 -0.49607,-0.46063 -0.46063,-1.488189 0,-1.027559 m 7.86615,3.472441 0,-10.311024 m 6.87401,0.03543 -6.87401,6.838583 m 2.44488,-2.444882 4.42913,5.88189 m -163.09842,86.563001 -0.0354,-0.56693 -0.10629,-0.56693 -0.14174,-0.53149 -0.17716,-0.56693 -0.28347,-0.49606 -0.31889,-0.46063 -0.35434,-0.46063 -0.38976,-0.38977 -0.46063,-0.35433 -0.46063,-0.3189 -0.53149,-0.24803 -0.5315,-0.2126 -0.5315,-0.14173 -0.56693,-0.1063 -0.56693,-0.0354 -0.60236,0.0354 -0.56693,0.1063 -0.53149,0.14173 -0.5315,0.2126 -0.53149,0.24803 -0.46063,0.3189 -0.46063,0.35433 -0.38977,0.38977 -0.35433,0.46063 -0.3189,0.46063 -0.28346,0.49606 -0.17717,0.56693 -0.14173,0.53149 -0.1063,0.56693 -0.0354,0.56693 0.0354,0.56693 0.1063,0.56693 0.14173,0.56693 0.17717,0.49606 0.28346,0.5315 0.3189,0.49606 0.35433,0.4252 0.38977,0.4252 0.46063,0.35433 0.46063,0.28346 0.53149,0.28347 0.5315,0.17716 0.53149,0.17717 0.56693,0.0709 0.60236,0.0354 0.56693,-0.0354 0.56693,-0.0709 0.5315,-0.17717 0.5315,-0.17716 0.53149,-0.28347 0.46063,-0.28346 0.46063,-0.35433 0.38976,-0.4252 0.35434,-0.4252 0.31889,-0.49606 0.28347,-0.5315 0.17716,-0.49606 0.14174,-0.56693 0.10629,-0.56693 0.0354,-0.56693 m -11.09055,-10.27559 0,-10.34646 m 10.80708,1.52363 -0.99212,-0.99213 -1.45276,-0.49606 -1.98425,0 -1.45276,0.49606 -0.99212,0.99213 0,0.95669 0.49606,0.99212 0.49606,0.49607 0.9567,0.49606 2.97637,0.95669 0.9567,0.49607 0.49606,0.49606 0.49606,0.99213 0,1.45275 -0.99212,0.99213 -1.45276,0.49606 -1.98425,0 -1.45276,-0.49606 -0.99212,-0.99213 m 9.85039,1.48819 3.89764,-10.31102 3.9685,10.31102 m -6.41338,-3.43701 4.96063,0 m 4.3937,-4.88976 0.95669,-0.49606 1.48819,-1.48819 0,10.34645 m 94.64173,-9.14173 -0.0354,-0.60236 -0.1063,-0.60236 -0.17717,-0.56693 -0.24803,-0.56693 -0.28346,-0.5315 -0.35433,-0.49606 -0.38977,-0.46063 -0.46063,-0.4252 -0.49606,-0.35433 -0.56693,-0.28346 -0.56693,-0.24804 -0.56693,-0.14173 -0.60236,-0.1063 -0.6378,-0.0354 -0.60236,0.0354 -0.60236,0.1063 -0.60236,0.14173 -0.5315,0.24804 -0.53149,0.28346 -0.5315,0.35433 -0.46063,0.4252 -0.38976,0.46063 -0.35433,0.49606 -0.3189,0.5315 -0.2126,0.56693 -0.17717,0.56693 -0.10629,0.60236 -0.0354,0.60236 0.0354,0.6378 0.10629,0.60236 0.17717,0.56693 0.2126,0.56693 0.3189,0.53149 0.35433,0.49607 0.38976,0.46063 0.46063,0.38976 0.5315,0.38976 0.53149,0.28347 0.5315,0.24803 0.60236,0.14173 0.60236,0.1063 0.60236,0.0354 0.6378,-0.0354 0.60236,-0.1063 0.56693,-0.14173 0.56693,-0.24803 0.56693,-0.28347 0.49606,-0.38976 0.46063,-0.38976 0.38977,-0.46063 0.35433,-0.49607 0.28346,-0.53149 0.24803,-0.56693 0.17717,-0.56693 0.1063,-0.60236 0.0354,-0.6378 m -11.48031,-9.07087 0,-10.31102 m 10.80708,1.48819 -0.99212,-0.95669 -1.45276,-0.49607 -1.98425,0 -1.45276,0.49607 -0.99212,0.95669 0,0.99212 0.49606,0.99213 0.49606,0.46063 0.9567,0.49606 2.94094,0.99213 0.99213,0.49606 0.49606,0.49607 0.49606,0.95669 0,1.48819 -0.99212,0.95669 -1.45276,0.49606 -1.98425,0 -1.45276,-0.49606 -0.99212,-0.95669 m 9.81496,1.45275 3.93307,-10.27559 3.9685,10.27559 m -6.41338,-3.437 4.96063,0 m 4.85433,-4.39371 0,-0.49606 0.49606,-0.95669 0.49606,-0.49606 0.99213,-0.49607 1.98425,0 0.99213,0.49607 0.46063,0.49606 0.49606,0.95669 0,0.99213 -0.49606,0.95669 -0.9567,1.48819 -4.92519,4.88976 6.90945,0 m -130.6063,28.45276 5.45669,5.4567 5.49213,-5.4567 m 99.63779,-19.38189 5.45669,5.45669 5.4567,-5.45669 m 0.63779,0 -0.0354,-0.17716 -0.1063,-0.17717 -0.1063,-0.1063 -0.17716,-0.1063 -0.2126,-0.0354 -0.17717,0.0354 -0.17716,0.1063 -0.1063,0.1063 -0.1063,0.17717 -0.0354,0.17716 0.0354,0.2126 0.1063,0.14173 0.1063,0.14173 0.17716,0.1063 0.17717,0.0354 0.2126,-0.0354 0.17716,-0.1063 0.1063,-0.14173 0.1063,-0.14173 0.0354,-0.2126 m -110.58661,19.38189 -0.0354,-0.17716 -0.0709,-0.17717 -0.14173,-0.14173 -0.17717,-0.0709 -0.17716,-0.0354 -0.2126,0.0354 -0.14173,0.0709 -0.14174,0.14173 -0.1063,0.17717 -0.0354,0.17716 0.0354,0.17717 0.1063,0.17716 0.14174,0.14174 0.14173,0.0709 0.2126,0.0354 0.17716,-0.0354 0.17717,-0.0709 0.14173,-0.14174 0.0709,-0.17716 0.0354,-0.17717 m 118.48819,-104.704735 42.51968,0 0,24.803152 -42.51968,0 0,-24.838585"
       style="fill:none;stroke:#000000;stroke-width:1;stroke-linecap:round;stroke-linejoin:round;stroke-miterlimit:4;stroke-opacity:1;stroke-dasharray:none" />
    <path
       inkscape:connector-curvature="0"
       id="path2997"
       d="m 262.48819,311.10239 0.0709,0.1063 0.2126,0.24803 0.35433,0.4252 0.49607,0.56693 0.56692,0.67323 0.70867,0.77952 0.77952,0.8504 0.88583,0.88582 0.92126,0.9567 0.99213,0.99212 1.06299,0.99213 1.06299,0.95669 1.13386,0.92126 1.13386,0.88583 1.13385,0.77953 1.13386,0.70866 1.13386,0.63779 1.13386,0.46063 1.06299,0.3189 1.02756,0.17717 1.38189,-0.1063 1.27559,-0.4252 1.16929,-0.74409 1.06299,-1.063 0.99213,-1.27559 0.85039,-1.52362 0.81496,-1.73622 0.70867,-1.87795 0.63779,-2.01969 0.56693,-2.09055 0.49606,-2.16142 0.4252,-2.23228 0.35433,-2.23228 0.35433,-2.16142 0.24803,-2.12599 0.2126,-2.05511 0.17717,-1.91339 0.14173,-1.77165 0.1063,-1.55906 0.0709,-1.38189 0.0354,-1.09842 0.0354,-0.8504 0.0354,-0.53149 0,-0.2126 m 0,58.74803 0,-145.9134"
       style="fill:none;stroke:#ff0000;stroke-width:1;stroke-linecap:round;stroke-linejoin:round;stroke-miterlimit:4;stroke-opacity:1;stroke-dasharray:none" />
    <path
       inkscape:connector-curvature="0"
       id="path2993"
       d="m 291.6496,447.87406 0.0709,0.1063 0.2126,0.28346 0.35433,0.4252 0.49606,0.53149 0.56693,0.70866 0.70866,0.7441 0.77953,0.85039 0.88583,0.92126 0.92126,0.9567 0.99212,0.95669 1.063,0.99213 1.09842,0.95669 1.09843,0.92126 1.13385,0.88583 1.13386,0.81496 1.16929,0.70866 1.09843,0.60236 1.13386,0.49606 1.06299,0.3189 1.02756,0.17717 1.38189,-0.1063 1.27559,-0.4252 1.16929,-0.77953 1.06299,-1.02756 0.99213,-1.31102 0.85039,-1.52362 0.81496,-1.70079 0.70866,-1.87795 0.6378,-2.01969 0.56693,-2.12598 0.49606,-2.16142 0.4252,-2.19685 0.38976,-2.23229 0.3189,-2.19685 0.24803,-2.12598 0.2126,-2.05512 0.17716,-1.91338 0.14174,-1.73623 0.1063,-1.59448 0.0709,-1.34646 0.0709,-1.13386 0.0354,-0.81496 0,-0.5315 0,-0.24803 m 0,58.78347 0,-282.7205"
       style="fill:none;stroke:#ff0000;stroke-width:1;stroke-linecap:round;stroke-linejoin:round;stroke-miterlimit:4;stroke-opacity:1;stroke-dasharray:none" />
    <path
       inkscape:connector-curvature="0"
       id="path2995"
       d="m 348.16535,455.17327 4.85433,1.80709 0,30.25984 -4.85433,1.80709 -4.85433,-1.80709 0,-30.25984 4.85433,-1.80709 m -65.62205,-97.47639 9.1063,-9.67323 9.1063,9.67323 -9.1063,9.70867 -9.1063,-9.70867 18.24804,0 m -39.11811,-59.84646 0.81496,13.25197 -13.32284,-0.0709 -0.81496,-13.25197 13.32284,0.0709 -12.50788,13.1811"
       style="fill:none;stroke:#000000;stroke-width:1;stroke-linecap:round;stroke-linejoin:round;stroke-miterlimit:4;stroke-opacity:1;stroke-dasharray:none" />
    <path
       inkscape:connector-curvature="0"
       id="path2999"
       d="m 154.31102,452.12603 0,-154.34648 -153.74409087,0 m 88.72440887,154.34648 0,-154.38191 M 0,423.0709 l 51.023622,0 0,28.4882"
       style="fill:none;stroke:#0000ff;stroke-width:1;stroke-linecap:round;stroke-linejoin:round;stroke-miterlimit:4;stroke-opacity:1;stroke-dasharray:none" />
    <path
       sodipodi:type="arc"
       style="fill:none;stroke:#000000;stroke-width:1;stroke-miterlimit:4;stroke-opacity:1;stroke-dasharray:none"
       id="path6026"
       sodipodi:cx="146.3891"
       sodipodi:cy="473.35645"
       sodipodi:rx="10.923771"
       sodipodi:ry="11.029315"
       d="m 157.31287,473.35645 a 10.923771,11.029315 0 1 1 -21.84754,0 10.923771,11.029315 0 1 1 21.84754,0 z"
       transform="translate(8.0091593,-9.8584812)" />
    <path
       transform="translate(-57.068775,-10.007743)"
       d="m 157.31287,473.35645 a 10.923771,11.029315 0 1 1 -21.84754,0 10.923771,11.029315 0 1 1 21.84754,0 z"
       sodipodi:ry="11.029315"
       sodipodi:rx="10.923771"
       sodipodi:cy="473.35645"
       sodipodi:cx="146.3891"
       id="path6036"
       style="fill:none;stroke:#000000;stroke-width:1;stroke-miterlimit:4;stroke-opacity:1;stroke-dasharray:none"
       sodipodi:type="arc" />
    <path
       style="fill:none;stroke:#000000;stroke-width:1px;stroke-linecap:butt;stroke-linejoin:miter;stroke-opacity:1"
       d="m 311.95616,495.39831 8.88104,9.32883 8.95568,-9.77661 -8.80641,-9.40347 -8.65716,9.70199 17.46357,-0.0746"
       id="path6060"
       inkscape:connector-curvature="0" />
    <path
       style="fill:none;stroke:#000000;stroke-width:1px;stroke-linecap:butt;stroke-linejoin:miter;stroke-opacity:1"
       d="m 278.16039,447.12885 13.24573,0.15832 -1.05544,-12.9291 -13.03464,-0.26386 z"
       id="path6064"
       inkscape:connector-curvature="0" />
    <path
       style="fill:none;stroke:#000000;stroke-width:1px;stroke-linecap:butt;stroke-linejoin:miter;stroke-opacity:1"
       d="m 278.26593,447.12885 12.08476,-12.5597"
       id="path6066"
       inkscape:connector-curvature="0" />
  </g>
  <g
     inkscape:groupmode="layer"
     id="layer3"
     inkscape:label="P2.Contents"
     sodipodi:insensitive="true">
    <g
       transform="matrix(0,1,-1,0,426.4576,-365.33385)"
       style="display:inline"
       id="g5322">
      <path
         id="path5794"
         d="m 833.47891,633.42068 0,-18.24803"
         style="fill:none;stroke:#000000;stroke-width:1;stroke-linecap:round;stroke-linejoin:round;stroke-miterlimit:4;stroke-opacity:1;stroke-dasharray:none"
         inkscape:connector-curvature="0"
         transform="translate(0,-352.36218)" />
      <path
         inkscape:connector-curvature="0"
         id="path5311"
         d="m 818.30357,271.96428 15.35715,8.83929"
         style="fill:none;stroke:#000000;stroke-width:1px;stroke-linecap:butt;stroke-linejoin:miter;stroke-opacity:1" />
      <path
         inkscape:connector-curvature="0"
         id="path5313"
         d="m 818.57143,272.23214 15.08929,-9.91071"
         style="fill:none;stroke:#000000;stroke-width:1px;stroke-linecap:butt;stroke-linejoin:miter;stroke-opacity:1" />
    </g>
    <text
       xml:space="preserve"
       style="font-size:14px;font-style:normal;font-variant:normal;font-weight:normal;font-stretch:normal;line-height:125%;letter-spacing:0px;word-spacing:0px;fill:#000000;fill-opacity:1;stroke:none;font-family:Calibri;-inkscape-font-specification:Calibri"
       x="81.479729"
       y="487.44656"
       id="text6052"
       sodipodi:linespacing="125%"><tspan
         sodipodi:role="line"
         id="tspan6054"
         x="81.479729"
         y="487.44656"
         style="font-size:18px">P1</tspan></text>
    <text
       xml:space="preserve"
       style="font-size:14px;font-style:normal;font-variant:normal;font-weight:normal;font-stretch:normal;line-height:125%;letter-spacing:0px;word-spacing:0px;fill:#000000;fill-opacity:1;stroke:none;font-family:Calibri;-inkscape-font-specification:Calibri"
       x="144.80594"
       y="487.86871"
       id="text6056"
       sodipodi:linespacing="125%"><tspan
         sodipodi:role="line"
         id="tspan6058"
         x="144.80594"
         y="487.86871"
         style="font-size:18px">P2</tspan></text>
  </g>
  <g
     inkscape:groupmode="layer"
     id="layer2"
     inkscape:label="P1.Contents"
     sodipodi:insensitive="true">
    <g
       id="g6028"
       style="display:inline"
       transform="matrix(0,1,-1,0,361.37967,-365.48311)">
      <path
         transform="translate(0,-352.36218)"
         inkscape:connector-curvature="0"
         style="fill:none;stroke:#000000;stroke-width:1;stroke-linecap:round;stroke-linejoin:round;stroke-miterlimit:4;stroke-opacity:1;stroke-dasharray:none"
         d="m 833.47891,633.42068 0,-18.24803"
         id="path6030" />
      <path
         style="fill:none;stroke:#000000;stroke-width:1px;stroke-linecap:butt;stroke-linejoin:miter;stroke-opacity:1"
         d="m 818.30357,271.96428 15.35715,8.83929"
         id="path6032"
         inkscape:connector-curvature="0" />
      <path
         style="fill:none;stroke:#000000;stroke-width:1px;stroke-linecap:butt;stroke-linejoin:miter;stroke-opacity:1"
         d="m 818.57143,272.23214 15.08929,-9.91071"
         id="path6034"
         inkscape:connector-curvature="0" />
    </g>
  </g>
  <g
     inkscape:groupmode="layer"
     id="layer6"
     inkscape:label="TJK.Selected"
     sodipodi:insensitive="true">
    <rect
       style="fill:#000000;fill-opacity:0.03921569;stroke:#000000;stroke-opacity:0.07843137;display:inline"
       id="rect3879-7-7"
       width="118.43475"
       height="156.61099"
       x="259.94675"
       y="1.5313824"
       ry="4.8629317" />
  </g>
  <g
     inkscape:groupmode="layer"
     id="layer5"
     inkscape:label="P2.Selected"
     sodipodi:insensitive="true">
    <rect
       style="fill:#000000;fill-opacity:0.03921569;stroke:#000000;stroke-opacity:0.07843137;display:inline"
       id="rect3879-7-1"
       width="39.910248"
       height="37.97974"
       x="133.29431"
       y="451.56967"
       ry="4.8629317" />
  </g>
  <g
     inkscape:groupmode="layer"
     id="layer4"
     inkscape:label="P1.Selected"
     sodipodi:insensitive="true">
    <rect
       style="fill:#000000;fill-opacity:0.03921569;stroke:#000000;stroke-opacity:0.07843137;display:inline"
       id="rect3879-7"
       width="39.910248"
       height="37.97974"
       x="67.857224"
       y="450.30316"
       ry="4.8629317" />
  </g>
</svg>
